<mxfile host="app.diagrams.net" agent="Mozilla/5.0 (Windows NT 10.0; Win64; x64) AppleWebKit/537.36 (KHTML, like Gecko) Chrome/131.0.0.0 Safari/537.36 OPR/116.0.0.0" version="26.0.16">
  <diagram name="Page-1" id="N2eR4COiIx6cFjclAygJ">
    <mxGraphModel dx="1006" dy="537" grid="1" gridSize="10" guides="1" tooltips="1" connect="1" arrows="1" fold="1" page="1" pageScale="1" pageWidth="850" pageHeight="1100" math="0" shadow="0">
      <root>
        <mxCell id="0" />
        <mxCell id="1" parent="0" />
        <mxCell id="sqOa50Qf9UtghAR2e3vp-5" style="rounded=0;orthogonalLoop=1;jettySize=auto;html=1;exitX=0.5;exitY=0.5;exitDx=0;exitDy=0;exitPerimeter=0;endArrow=none;startFill=0;entryX=0;entryY=0.5;entryDx=0;entryDy=0;" edge="1" parent="1" source="sqOa50Qf9UtghAR2e3vp-1" target="sqOa50Qf9UtghAR2e3vp-4">
          <mxGeometry relative="1" as="geometry">
            <mxPoint x="190" y="210" as="targetPoint" />
          </mxGeometry>
        </mxCell>
        <mxCell id="sqOa50Qf9UtghAR2e3vp-8" style="rounded=0;orthogonalLoop=1;jettySize=auto;html=1;entryX=0;entryY=0.5;entryDx=0;entryDy=0;endArrow=none;startFill=0;" edge="1" parent="1" source="sqOa50Qf9UtghAR2e3vp-1" target="sqOa50Qf9UtghAR2e3vp-7">
          <mxGeometry relative="1" as="geometry" />
        </mxCell>
        <mxCell id="sqOa50Qf9UtghAR2e3vp-1" value="user" style="shape=umlActor;verticalLabelPosition=bottom;verticalAlign=top;html=1;outlineConnect=0;" vertex="1" parent="1">
          <mxGeometry x="100" y="210" width="30" height="60" as="geometry" />
        </mxCell>
        <mxCell id="sqOa50Qf9UtghAR2e3vp-4" value="register for an account" style="ellipse;whiteSpace=wrap;html=1;" vertex="1" parent="1">
          <mxGeometry x="310" y="130" width="120" height="80" as="geometry" />
        </mxCell>
        <mxCell id="sqOa50Qf9UtghAR2e3vp-6" value="authentification" style="ellipse;whiteSpace=wrap;html=1;" vertex="1" parent="1">
          <mxGeometry x="610" y="120" width="120" height="80" as="geometry" />
        </mxCell>
        <mxCell id="sqOa50Qf9UtghAR2e3vp-9" style="rounded=0;orthogonalLoop=1;jettySize=auto;html=1;exitX=1;exitY=0.5;exitDx=0;exitDy=0;entryX=0;entryY=0.5;entryDx=0;entryDy=0;endArrow=classic;startFill=0;dashed=1;endFill=1;" edge="1" parent="1" source="sqOa50Qf9UtghAR2e3vp-7" target="sqOa50Qf9UtghAR2e3vp-6">
          <mxGeometry relative="1" as="geometry" />
        </mxCell>
        <mxCell id="sqOa50Qf9UtghAR2e3vp-10" value="&amp;lt;&amp;lt;include&amp;gt;&amp;gt;" style="edgeLabel;html=1;align=center;verticalAlign=middle;resizable=0;points=[];" vertex="1" connectable="0" parent="sqOa50Qf9UtghAR2e3vp-9">
          <mxGeometry x="0.0244" y="-1" relative="1" as="geometry">
            <mxPoint x="-1" as="offset" />
          </mxGeometry>
        </mxCell>
        <mxCell id="sqOa50Qf9UtghAR2e3vp-7" value="manage cv" style="ellipse;whiteSpace=wrap;html=1;" vertex="1" parent="1">
          <mxGeometry x="315" y="220" width="110" height="90" as="geometry" />
        </mxCell>
        <mxCell id="sqOa50Qf9UtghAR2e3vp-18" style="rounded=0;orthogonalLoop=1;jettySize=auto;html=1;exitX=0.5;exitY=0;exitDx=0;exitDy=0;entryX=1;entryY=1;entryDx=0;entryDy=0;dashed=1;" edge="1" parent="1" source="sqOa50Qf9UtghAR2e3vp-17" target="sqOa50Qf9UtghAR2e3vp-13">
          <mxGeometry relative="1" as="geometry" />
        </mxCell>
        <mxCell id="sqOa50Qf9UtghAR2e3vp-31" value="&amp;lt;&amp;lt;extends&amp;gt;&amp;gt;" style="edgeLabel;html=1;align=center;verticalAlign=middle;resizable=0;points=[];" vertex="1" connectable="0" parent="sqOa50Qf9UtghAR2e3vp-18">
          <mxGeometry x="-0.1558" y="1" relative="1" as="geometry">
            <mxPoint x="3" y="10" as="offset" />
          </mxGeometry>
        </mxCell>
        <mxCell id="sqOa50Qf9UtghAR2e3vp-13" value="creation cv" style="ellipse;whiteSpace=wrap;html=1;" vertex="1" parent="1">
          <mxGeometry x="130" y="280" width="120" height="80" as="geometry" />
        </mxCell>
        <mxCell id="sqOa50Qf9UtghAR2e3vp-15" style="rounded=0;orthogonalLoop=1;jettySize=auto;html=1;exitX=0.5;exitY=0;exitDx=0;exitDy=0;entryX=0;entryY=0.625;entryDx=0;entryDy=0;entryPerimeter=0;endArrow=block;endFill=0;endSize=23;" edge="1" parent="1" source="sqOa50Qf9UtghAR2e3vp-13" target="sqOa50Qf9UtghAR2e3vp-7">
          <mxGeometry relative="1" as="geometry" />
        </mxCell>
        <mxCell id="sqOa50Qf9UtghAR2e3vp-16" value="cv Canadian" style="ellipse;whiteSpace=wrap;html=1;" vertex="1" parent="1">
          <mxGeometry y="400" width="120" height="80" as="geometry" />
        </mxCell>
        <mxCell id="sqOa50Qf9UtghAR2e3vp-17" value="cv European" style="ellipse;whiteSpace=wrap;html=1;" vertex="1" parent="1">
          <mxGeometry x="160" y="410" width="120" height="80" as="geometry" />
        </mxCell>
        <mxCell id="sqOa50Qf9UtghAR2e3vp-19" style="rounded=0;orthogonalLoop=1;jettySize=auto;html=1;exitX=0.583;exitY=0;exitDx=0;exitDy=0;entryX=0;entryY=1;entryDx=0;entryDy=0;dashed=1;exitPerimeter=0;" edge="1" parent="1" source="sqOa50Qf9UtghAR2e3vp-16" target="sqOa50Qf9UtghAR2e3vp-13">
          <mxGeometry relative="1" as="geometry" />
        </mxCell>
        <mxCell id="sqOa50Qf9UtghAR2e3vp-32" value="extends" style="edgeLabel;html=1;align=center;verticalAlign=middle;resizable=0;points=[];" vertex="1" connectable="0" parent="sqOa50Qf9UtghAR2e3vp-19">
          <mxGeometry x="0.1011" y="-2" relative="1" as="geometry">
            <mxPoint as="offset" />
          </mxGeometry>
        </mxCell>
        <mxCell id="sqOa50Qf9UtghAR2e3vp-21" value="research cv" style="ellipse;whiteSpace=wrap;html=1;" vertex="1" parent="1">
          <mxGeometry x="300" y="390" width="120" height="80" as="geometry" />
        </mxCell>
        <mxCell id="sqOa50Qf9UtghAR2e3vp-28" style="rounded=0;orthogonalLoop=1;jettySize=auto;html=1;exitX=0.5;exitY=0;exitDx=0;exitDy=0;endArrow=block;endFill=0;entryX=0.5;entryY=1;entryDx=0;entryDy=0;endSize=23;" edge="1" parent="1" source="sqOa50Qf9UtghAR2e3vp-22" target="sqOa50Qf9UtghAR2e3vp-7">
          <mxGeometry relative="1" as="geometry">
            <mxPoint x="400" y="330" as="targetPoint" />
          </mxGeometry>
        </mxCell>
        <mxCell id="sqOa50Qf9UtghAR2e3vp-22" value="update cv" style="ellipse;whiteSpace=wrap;html=1;" vertex="1" parent="1">
          <mxGeometry x="450" y="380" width="120" height="80" as="geometry" />
        </mxCell>
        <mxCell id="sqOa50Qf9UtghAR2e3vp-24" value="download cv" style="ellipse;whiteSpace=wrap;html=1;" vertex="1" parent="1">
          <mxGeometry x="590" y="300" width="120" height="80" as="geometry" />
        </mxCell>
        <mxCell id="sqOa50Qf9UtghAR2e3vp-25" value="delete cv" style="ellipse;whiteSpace=wrap;html=1;" vertex="1" parent="1">
          <mxGeometry x="620" y="210" width="120" height="80" as="geometry" />
        </mxCell>
        <mxCell id="sqOa50Qf9UtghAR2e3vp-26" style="rounded=0;orthogonalLoop=1;jettySize=auto;html=1;exitX=0;exitY=0.5;exitDx=0;exitDy=0;entryX=0.931;entryY=0.78;entryDx=0;entryDy=0;entryPerimeter=0;endArrow=block;endFill=0;endSize=23;" edge="1" parent="1" source="sqOa50Qf9UtghAR2e3vp-25" target="sqOa50Qf9UtghAR2e3vp-7">
          <mxGeometry relative="1" as="geometry" />
        </mxCell>
        <mxCell id="sqOa50Qf9UtghAR2e3vp-27" style="rounded=0;orthogonalLoop=1;jettySize=auto;html=1;entryX=0.707;entryY=0.996;entryDx=0;entryDy=0;entryPerimeter=0;endArrow=block;endFill=0;endSize=23;" edge="1" parent="1" source="sqOa50Qf9UtghAR2e3vp-24" target="sqOa50Qf9UtghAR2e3vp-7">
          <mxGeometry relative="1" as="geometry" />
        </mxCell>
        <mxCell id="sqOa50Qf9UtghAR2e3vp-30" style="rounded=0;orthogonalLoop=1;jettySize=auto;html=1;entryX=0.216;entryY=0.924;entryDx=0;entryDy=0;entryPerimeter=0;endArrow=block;endFill=0;endSize=23;" edge="1" parent="1" source="sqOa50Qf9UtghAR2e3vp-21" target="sqOa50Qf9UtghAR2e3vp-7">
          <mxGeometry relative="1" as="geometry" />
        </mxCell>
      </root>
    </mxGraphModel>
  </diagram>
</mxfile>
